<?xml version="1.0" encoding="UTF-8" standalone="no"?><svg xmlns="http://www.w3.org/2000/svg" xmlns:xlink="http://www.w3.org/1999/xlink" contentScriptType="application/ecmascript" contentStyleType="text/css" height="475px" preserveAspectRatio="none" style="width:614px;height:475px;background:#FFFFFF;" version="1.1" viewBox="0 0 614 475" width="614px" zoomAndPan="magnify"><defs><filter height="300%" id="fv8ap2ivy7oxu" width="300%" x="-1" y="-1"><feGaussianBlur result="blurOut" stdDeviation="2.0"/><feColorMatrix in="blurOut" result="blurOut2" type="matrix" values="0 0 0 0 0 0 0 0 0 0 0 0 0 0 0 0 0 0 .4 0"/><feOffset dx="4.0" dy="4.0" in="blurOut2" result="blurOut3"/><feBlend in="SourceGraphic" in2="blurOut3" mode="normal"/></filter></defs><g><!--MD5=[c73e0e294a50b1a263223e5d2394f37c]
cluster Project members--><polygon fill="#FFFFFF" filter="url(#fv8ap2ivy7oxu)" points="16,168.5,159,168.5,166,190.7969,415,190.7969,415,468,16,468,16,168.5" style="stroke:#000000;stroke-width:1.5;"/><line style="stroke:#000000;stroke-width:1.5;" x1="16" x2="166" y1="190.7969" y2="190.7969"/><text fill="#000000" font-family="sans-serif" font-size="14" font-weight="bold" lengthAdjust="spacing" textLength="137" x="20" y="183.4951">Project members</text><!--MD5=[d6181cb537bdc20c0a3007a98a56832d]
class Student--><rect codeLine="6" fill="#FEFECE" filter="url(#fv8ap2ivy7oxu)" height="91.1875" id="Student" style="stroke:#A80036;stroke-width:1.5;" width="166" x="32" y="361"/><text fill="#000000" font-family="sans-serif" font-size="12" lengthAdjust="spacing" textLength="46" x="92" y="377.1387">Student</text><line style="stroke:#A80036;stroke-width:1.5;" x1="33" x2="197" y1="384.9688" y2="384.9688"/><ellipse cx="43" cy="395.9688" fill="#000000" rx="3" ry="3" style="stroke:#000000;stroke-width:1.0;"/><text fill="#000000" font-family="sans-serif" font-size="11" lengthAdjust="spacing" textLength="140" x="52" y="399.1792">Id : Integer «generated»</text><line style="stroke:#A80036;stroke-width:1.0;" x1="33" x2="197" y1="405.7734" y2="405.7734"/><ellipse cx="43" cy="416.7734" fill="#000000" rx="3" ry="3" style="stroke:#000000;stroke-width:1.0;"/><text fill="#000000" font-family="sans-serif" font-size="11" lengthAdjust="spacing" textLength="100" x="52" y="419.9839">Firstname : String</text><ellipse cx="43" cy="429.5781" fill="#000000" rx="3" ry="3" style="stroke:#000000;stroke-width:1.0;"/><text fill="#000000" font-family="sans-serif" font-size="11" lengthAdjust="spacing" textLength="100" x="52" y="432.7886">Lastname : String</text><ellipse cx="43" cy="442.3828" fill="#000000" rx="3" ry="3" style="stroke:#000000;stroke-width:1.0;"/><text fill="#000000" font-family="sans-serif" font-size="11" lengthAdjust="spacing" textLength="75" x="52" y="445.5933">Email : String</text><!--MD5=[79d378210367c0c6ec62ef762ddfbd1b]
class Project--><rect codeLine="14" fill="#FEFECE" filter="url(#fv8ap2ivy7oxu)" height="91.1875" id="Project" style="stroke:#A80036;stroke-width:1.5;" width="166" x="233" y="361"/><text fill="#000000" font-family="sans-serif" font-size="12" lengthAdjust="spacing" textLength="41" x="295.5" y="377.1387">Project</text><line style="stroke:#A80036;stroke-width:1.5;" x1="234" x2="398" y1="384.9688" y2="384.9688"/><ellipse cx="244" cy="395.9688" fill="#000000" rx="3" ry="3" style="stroke:#000000;stroke-width:1.0;"/><text fill="#000000" font-family="sans-serif" font-size="11" lengthAdjust="spacing" textLength="140" x="253" y="399.1792">Id : Integer «generated»</text><line style="stroke:#A80036;stroke-width:1.0;" x1="234" x2="398" y1="405.7734" y2="405.7734"/><ellipse cx="244" cy="416.7734" fill="#000000" rx="3" ry="3" style="stroke:#000000;stroke-width:1.0;"/><text fill="#000000" font-family="sans-serif" font-size="11" lengthAdjust="spacing" textLength="78" x="253" y="419.9839">Name : String</text><ellipse cx="244" cy="429.5781" fill="#000000" rx="3" ry="3" style="stroke:#000000;stroke-width:1.0;"/><text fill="#000000" font-family="sans-serif" font-size="11" lengthAdjust="spacing" textLength="116" x="253" y="432.7886">Schoolyear : Integer</text><text fill="#000000" font-family="sans-serif" font-size="11" lengthAdjust="spacing" textLength="91" x="253" y="445.5933">Location : String</text><!--MD5=[09d5745c5584b5a8732bb1d860afb69c]
class Projectmember--><rect codeLine="22" fill="#FEFECE" filter="url(#fv8ap2ivy7oxu)" height="78.3828" id="Projectmember" style="stroke:#A80036;stroke-width:1.5;" width="183" x="122.5" y="203.5"/><text fill="#000000" font-family="sans-serif" font-size="12" lengthAdjust="spacing" textLength="92" x="168" y="219.6387">Projectmember</text><line style="stroke:#A80036;stroke-width:1.5;" x1="123.5" x2="304.5" y1="227.4688" y2="227.4688"/><ellipse cx="133.5" cy="238.4688" fill="#000000" rx="3" ry="3" style="stroke:#000000;stroke-width:1.0;"/><text fill="#000000" font-family="sans-serif" font-size="11" lengthAdjust="spacing" textLength="138" x="142.5" y="241.6792">StudentId : Integer «FK»</text><ellipse cx="133.5" cy="251.2734" fill="#000000" rx="3" ry="3" style="stroke:#000000;stroke-width:1.0;"/><text fill="#000000" font-family="sans-serif" font-size="11" lengthAdjust="spacing" textLength="131" x="142.5" y="254.4839">ProjectId : Integer «FK»</text><line style="stroke:#A80036;stroke-width:1.0;" x1="123.5" x2="304.5" y1="261.0781" y2="261.0781"/><text fill="#000000" font-family="sans-serif" font-size="11" lengthAdjust="spacing" textLength="171" x="128.5" y="275.2886">PresenceChecked : DateTime</text><!--MD5=[b34797a66dc35cbf1d65f7e3ca75530e]
class Task--><rect codeLine="33" fill="#FEFECE" filter="url(#fv8ap2ivy7oxu)" height="116.7969" id="Task" style="stroke:#A80036;stroke-width:1.5;" width="251" x="88.5" y="7"/><text fill="#000000" font-family="sans-serif" font-size="12" lengthAdjust="spacing" textLength="28" x="200" y="23.1387">Task</text><line style="stroke:#A80036;stroke-width:1.5;" x1="89.5" x2="338.5" y1="30.9688" y2="30.9688"/><ellipse cx="99.5" cy="41.9688" fill="#000000" rx="3" ry="3" style="stroke:#000000;stroke-width:1.0;"/><text fill="#000000" font-family="sans-serif" font-size="11" lengthAdjust="spacing" textLength="140" x="108.5" y="45.1792">Id : Integer «generated»</text><line style="stroke:#A80036;stroke-width:1.0;" x1="89.5" x2="338.5" y1="51.7734" y2="51.7734"/><ellipse cx="99.5" cy="62.7734" fill="#000000" rx="3" ry="3" style="stroke:#000000;stroke-width:1.0;"/><text fill="#000000" font-family="sans-serif" font-size="11" lengthAdjust="spacing" textLength="135" x="108.5" y="65.9839">Name : String «unique»</text><text fill="#000000" font-family="sans-serif" font-size="11" lengthAdjust="spacing" textLength="110" x="108.5" y="78.7886">Started : DateTime</text><text fill="#000000" font-family="sans-serif" font-size="11" lengthAdjust="spacing" textLength="115" x="108.5" y="91.5933">Finished : DateTime</text><ellipse cx="99.5" cy="101.1875" fill="#000000" rx="3" ry="3" style="stroke:#000000;stroke-width:1.0;"/><text fill="#000000" font-family="sans-serif" font-size="11" lengthAdjust="spacing" textLength="225" x="108.5" y="104.3979">ProjectmemberStudentId : Integer «FK»</text><ellipse cx="99.5" cy="113.9922" fill="#000000" rx="3" ry="3" style="stroke:#000000;stroke-width:1.0;"/><text fill="#000000" font-family="sans-serif" font-size="11" lengthAdjust="spacing" textLength="218" x="108.5" y="117.2026">ProjectmemberProjectId : Integer «FK»</text><!--MD5=[ffbe56a7748d828ba7d90b566e12a2a0]
class Equipment--><rect codeLine="45" fill="#FEFECE" filter="url(#fv8ap2ivy7oxu)" height="116.7969" id="Equipment" style="stroke:#A80036;stroke-width:1.5;" width="169" x="431.5" y="184"/><text fill="#000000" font-family="sans-serif" font-size="12" lengthAdjust="spacing" textLength="63" x="484.5" y="200.1387">Equipment</text><line style="stroke:#A80036;stroke-width:1.5;" x1="432.5" x2="599.5" y1="207.9688" y2="207.9688"/><ellipse cx="442.5" cy="218.9688" fill="#000000" rx="3" ry="3" style="stroke:#000000;stroke-width:1.0;"/><text fill="#000000" font-family="sans-serif" font-size="11" lengthAdjust="spacing" textLength="143" x="451.5" y="222.1792">InventoryNumber : String</text><line style="stroke:#A80036;stroke-width:1.0;" x1="432.5" x2="599.5" y1="228.7734" y2="228.7734"/><ellipse cx="442.5" cy="239.7734" fill="#000000" rx="3" ry="3" style="stroke:#000000;stroke-width:1.0;"/><text fill="#000000" font-family="sans-serif" font-size="11" lengthAdjust="spacing" textLength="78" x="451.5" y="242.9839">Name : String</text><text fill="#000000" font-family="sans-serif" font-size="11" lengthAdjust="spacing" textLength="109" x="451.5" y="255.7886">Rented : DateTime</text><text fill="#000000" font-family="sans-serif" font-size="11" lengthAdjust="spacing" textLength="120" x="451.5" y="268.5933">Returned : DateTime</text><ellipse cx="442.5" cy="278.1875" fill="#000000" rx="3" ry="3" style="stroke:#000000;stroke-width:1.0;"/><text fill="#000000" font-family="sans-serif" font-size="11" lengthAdjust="spacing" textLength="131" x="451.5" y="281.3979">ProjectId : Integer «FK»</text><ellipse cx="442.5" cy="290.9922" fill="#000000" rx="3" ry="3" style="stroke:#000000;stroke-width:1.0;"/><text fill="#000000" font-family="sans-serif" font-size="11" lengthAdjust="spacing" textLength="138" x="451.5" y="294.2026">StudentId : Integer «FK»</text><!--MD5=[92796fa8b1c7f321ef8c38999f4bc4c2]
link Projectmember to Student--><path codeLine="29" d="M147.667,289.782 C147.667,289.782 147.667,352.857 147.667,352.857 " fill="none" id="Projectmember-Student" style="stroke:#A80036;stroke-width:1.0;"/><line style="stroke:#A80036;stroke-width:1.0;" x1="151.667" x2="143.667" y1="356.857" y2="356.857"/><line style="stroke:#A80036;stroke-width:1.0;" x1="151.667" x2="143.667" y1="353.857" y2="353.857"/><line style="stroke:#A80036;stroke-width:1.0;" x1="147.667" x2="147.667" y1="352.857" y2="360.857"/><line style="stroke:#A80036;stroke-width:1.0;" x1="147.667" x2="141.667" y1="289.782" y2="281.782"/><line style="stroke:#A80036;stroke-width:1.0;" x1="147.667" x2="153.667" y1="289.782" y2="281.782"/><line style="stroke:#A80036;stroke-width:1.0;" x1="147.667" x2="147.667" y1="289.782" y2="281.782"/><ellipse cx="147.667" cy="295.782" rx="4" ry="4" style="stroke:#A80036;stroke-width:1.0;fill:none;"/><!--MD5=[66f308ce2d4602fe84062e5d13749afc]
link Projectmember to Project--><path codeLine="30" d="M269.25,289.782 C269.25,289.782 269.25,352.857 269.25,352.857 " fill="none" id="Projectmember-Project" style="stroke:#A80036;stroke-width:1.0;"/><line style="stroke:#A80036;stroke-width:1.0;" x1="273.25" x2="265.25" y1="356.857" y2="356.857"/><line style="stroke:#A80036;stroke-width:1.0;" x1="273.25" x2="265.25" y1="353.857" y2="353.857"/><line style="stroke:#A80036;stroke-width:1.0;" x1="269.25" x2="269.25" y1="352.857" y2="360.857"/><line style="stroke:#A80036;stroke-width:1.0;" x1="269.25" x2="263.25" y1="289.782" y2="281.782"/><line style="stroke:#A80036;stroke-width:1.0;" x1="269.25" x2="275.25" y1="289.782" y2="281.782"/><line style="stroke:#A80036;stroke-width:1.0;" x1="269.25" x2="269.25" y1="289.782" y2="281.782"/><ellipse cx="269.25" cy="295.782" rx="4" ry="4" style="stroke:#A80036;stroke-width:1.0;fill:none;"/><!--MD5=[6ef41defe1a2ceedbfc58532dfdb1edc]
link Task to Projectmember--><path codeLine="43" d="M214,132.438 C214,132.438 214,195.317 214,195.317 " fill="none" id="Task-Projectmember" style="stroke:#A80036;stroke-width:1.0;stroke-dasharray:7.0,7.0;"/><line style="stroke:#A80036;stroke-width:1.0;" x1="218" x2="210" y1="199.317" y2="199.317"/><line style="stroke:#A80036;stroke-width:1.0;" x1="218" x2="210" y1="196.317" y2="196.317"/><line style="stroke:#A80036;stroke-width:1.0;" x1="214" x2="214" y1="195.317" y2="203.317"/><line style="stroke:#A80036;stroke-width:1.0;" x1="214" x2="208" y1="132.438" y2="124.438"/><line style="stroke:#A80036;stroke-width:1.0;" x1="214" x2="220" y1="132.438" y2="124.438"/><line style="stroke:#A80036;stroke-width:1.0;" x1="214" x2="214" y1="132.438" y2="124.438"/><ellipse cx="214" cy="138.438" rx="4" ry="4" style="stroke:#A80036;stroke-width:1.0;fill:none;"/><!--MD5=[cf9c1491e012327cbec665c8a2560bb9]
link Equipment to Project--><path codeLine="55" d="M423.485,295 C423.485,295 369.25,295 369.25,295 C369.25,295 369.25,352.827 369.25,352.827 " fill="none" id="Equipment-Project" style="stroke:#A80036;stroke-width:1.0;stroke-dasharray:7.0,7.0;"/><line style="stroke:#A80036;stroke-width:1.0;" x1="373.25" x2="365.25" y1="356.827" y2="356.827"/><line style="stroke:#A80036;stroke-width:1.0;" x1="373.25" x2="365.25" y1="353.827" y2="353.827"/><line style="stroke:#A80036;stroke-width:1.0;" x1="369.25" x2="369.25" y1="352.827" y2="360.827"/><line style="stroke:#A80036;stroke-width:1.0;" x1="423.485" x2="431.485" y1="295" y2="289"/><line style="stroke:#A80036;stroke-width:1.0;" x1="423.485" x2="431.485" y1="295" y2="301"/><line style="stroke:#A80036;stroke-width:1.0;" x1="423.485" x2="431.485" y1="295" y2="295"/><ellipse cx="417.485" cy="295" rx="4" ry="4" style="stroke:#A80036;stroke-width:1.0;fill:none;"/><!--MD5=[e30e90d65cf4f1c2729ad6b10a7f860e]
link Equipment to Student--><path codeLine="56" d="M423.172,288 C423.172,288 172.833,288 172.833,288 C172.833,288 172.833,352.685 172.833,352.685 " fill="none" id="Equipment-Student" style="stroke:#A80036;stroke-width:1.0;stroke-dasharray:7.0,7.0;"/><line style="stroke:#A80036;stroke-width:1.0;" x1="176.833" x2="168.833" y1="356.685" y2="356.685"/><line style="stroke:#A80036;stroke-width:1.0;" x1="176.833" x2="168.833" y1="353.685" y2="353.685"/><line style="stroke:#A80036;stroke-width:1.0;" x1="172.833" x2="172.833" y1="352.685" y2="360.685"/><line style="stroke:#A80036;stroke-width:1.0;" x1="423.172" x2="431.172" y1="288" y2="282"/><line style="stroke:#A80036;stroke-width:1.0;" x1="423.172" x2="431.172" y1="288" y2="294"/><line style="stroke:#A80036;stroke-width:1.0;" x1="423.172" x2="431.172" y1="288" y2="288"/><ellipse cx="417.172" cy="288" rx="4" ry="4" style="stroke:#A80036;stroke-width:1.0;fill:none;"/><!--MD5=[d7c9db6766c68dabc68421655cd9623d]
@startuml
hide circle
skinparam linetype ortho

package "Project members" {

entity Student {
	*Id : Integer <<generated>>
	- - -
	*Firstname : String
	*Lastname : String
	*Email : String
}

entity Project {
	*Id : Integer <<generated>>
	- - -
	*Name : String
	*Schoolyear : Integer
	Location : String
}

entity Projectmember {
	*StudentId : Integer <<FK>>
	*ProjectId : Integer <<FK>>
	- - -
	PresenceChecked : DateTime
}

Projectmember }o- -|| Student
Projectmember }o- -|| Project
}

entity Task {
	*Id : Integer <<generated>>
	- - -
	*Name : String <<unique>>
	Started : DateTime
	Finished : DateTime
	*ProjectmemberStudentId : Integer <<FK>>
	*ProjectmemberProjectId : Integer <<FK>>
}

Task }o..|| Projectmember

entity Equipment {
	*InventoryNumber : String
	- - -
	*Name : String
	Rented : DateTime
	Returned : DateTime
	*ProjectId : Integer <<FK>>
	*StudentId : Integer <<FK>>
}

Equipment }o..|| Project
Equipment }o..|| Student
@enduml

PlantUML version 1.2021.16beta1(Unknown compile time)
(GPL source distribution)
Java Runtime: Java(TM) SE Runtime Environment
JVM: Java HotSpot(TM) 64-Bit Server VM
Default Encoding: UTF-8
Language: en
Country: US
--></g></svg>