<?xml version="1.0" encoding="UTF-8" standalone="no"?><svg xmlns="http://www.w3.org/2000/svg" xmlns:xlink="http://www.w3.org/1999/xlink" contentScriptType="application/ecmascript" contentStyleType="text/css" height="651px" preserveAspectRatio="none" style="width:633px;height:651px;background:#FFFFFF;" version="1.1" viewBox="0 0 633 651" width="633px" zoomAndPan="magnify"><defs><filter height="300%" id="f1glec4fxjl2f1" width="300%" x="-1" y="-1"><feGaussianBlur result="blurOut" stdDeviation="2.0"/><feColorMatrix in="blurOut" result="blurOut2" type="matrix" values="0 0 0 0 0 0 0 0 0 0 0 0 0 0 0 0 0 0 .4 0"/><feOffset dx="4.0" dy="4.0" in="blurOut2" result="blurOut3"/><feBlend in="SourceGraphic" in2="blurOut3" mode="normal"/></filter></defs><g><!--MD5=[8b4e08babfc1a6efc76e00f8de5ce75e]
cluster Todo--><polygon fill="#FFFFFF" filter="url(#f1glec4fxjl2f1)" points="275.5,6,322.5,6,329.5,28.2969,616.5,28.2969,616.5,344.5,275.5,344.5,275.5,6" style="stroke:#000000;stroke-width:1.5;"/><line style="stroke:#000000;stroke-width:1.5;" x1="275.5" x2="329.5" y1="28.2969" y2="28.2969"/><text fill="#000000" font-family="sans-serif" font-size="14" font-weight="bold" lengthAdjust="spacing" textLength="41" x="279.5" y="20.9951">Todo</text><!--MD5=[61a83f88cb8b7d3a80bc8c481f3736bf]
class Teacher--><rect codeLine="44" fill="#FEFECE" filter="url(#f1glec4fxjl2f1)" height="103.9922" id="Teacher" style="stroke:#A80036;stroke-width:1.5;" width="140" x="291.5" y="224.5"/><text fill="#000000" font-family="sans-serif" font-size="12" lengthAdjust="spacing" textLength="49" x="337" y="240.6387">Teacher</text><line style="stroke:#A80036;stroke-width:1.5;" x1="292.5" x2="430.5" y1="248.4688" y2="248.4688"/><ellipse cx="302.5" cy="259.4688" fill="#000000" rx="3" ry="3" style="stroke:#000000;stroke-width:1.0;"/><text fill="#000000" font-family="sans-serif" font-size="11" lengthAdjust="spacing" textLength="63" x="311.5" y="262.6792">Shortname</text><line style="stroke:#A80036;stroke-width:1.0;" x1="292.5" x2="430.5" y1="269.2734" y2="269.2734"/><ellipse cx="302.5" cy="280.2734" fill="#000000" rx="3" ry="3" style="stroke:#000000;stroke-width:1.0;"/><text fill="#000000" font-family="sans-serif" font-size="11" lengthAdjust="spacing" textLength="56" x="311.5" y="283.4839">Firstname</text><ellipse cx="302.5" cy="293.0781" fill="#000000" rx="3" ry="3" style="stroke:#000000;stroke-width:1.0;"/><text fill="#000000" font-family="sans-serif" font-size="11" lengthAdjust="spacing" textLength="56" x="311.5" y="296.2886">Lastname</text><text fill="#000000" font-family="sans-serif" font-size="11" lengthAdjust="spacing" textLength="31" x="311.5" y="309.0933">Email</text><ellipse cx="302.5" cy="318.6875" fill="#000000" rx="3" ry="3" style="stroke:#000000;stroke-width:1.0;"/><text fill="#000000" font-family="sans-serif" font-size="11" lengthAdjust="spacing" textLength="114" x="311.5" y="321.8979">SchoolNumber «FK»</text><!--MD5=[727ec6e48f0d743b5c15e63920d35b9c]
class RatingCriteriaTeacher--><rect codeLine="55" fill="#FEFECE" filter="url(#f1glec4fxjl2f1)" height="65.5781" id="RatingCriteriaTeacher" style="stroke:#A80036;stroke-width:1.5;" width="134" x="466.5" y="243.5"/><text fill="#000000" font-family="sans-serif" font-size="12" lengthAdjust="spacing" textLength="128" x="469.5" y="259.6387">RatingCriteriaTeacher</text><line style="stroke:#A80036;stroke-width:1.5;" x1="467.5" x2="599.5" y1="267.4688" y2="267.4688"/><ellipse cx="477.5" cy="278.4688" fill="#000000" rx="3" ry="3" style="stroke:#000000;stroke-width:1.0;"/><text fill="#000000" font-family="sans-serif" font-size="11" lengthAdjust="spacing" textLength="88" x="486.5" y="281.6792">Id «generated»</text><line style="stroke:#A80036;stroke-width:1.0;" x1="467.5" x2="599.5" y1="288.2734" y2="288.2734"/><ellipse cx="477.5" cy="299.2734" fill="#000000" rx="3" ry="3" style="stroke:#000000;stroke-width:1.0;"/><text fill="#000000" font-family="sans-serif" font-size="11" lengthAdjust="spacing" textLength="91" x="486.5" y="302.4839">Name «unique»</text><!--MD5=[f3d5b3f46491addce1a7dd2f9d26dfb9]
class TeacherRating--><rect codeLine="61" fill="#FEFECE" filter="url(#f1glec4fxjl2f1)" height="116.7969" id="TeacherRating" style="stroke:#A80036;stroke-width:1.5;" width="190" x="291.5" y="41"/><text fill="#000000" font-family="sans-serif" font-size="12" lengthAdjust="spacing" textLength="85" x="344" y="57.1387">TeacherRating</text><line style="stroke:#A80036;stroke-width:1.5;" x1="292.5" x2="480.5" y1="64.9688" y2="64.9688"/><ellipse cx="302.5" cy="75.9688" fill="#000000" rx="3" ry="3" style="stroke:#000000;stroke-width:1.0;"/><text fill="#000000" font-family="sans-serif" font-size="11" lengthAdjust="spacing" textLength="88" x="311.5" y="79.1792">Id «generated»</text><line style="stroke:#A80036;stroke-width:1.0;" x1="292.5" x2="480.5" y1="85.7734" y2="85.7734"/><ellipse cx="302.5" cy="96.7734" fill="#000000" rx="3" ry="3" style="stroke:#000000;stroke-width:1.0;"/><text fill="#000000" font-family="sans-serif" font-size="11" lengthAdjust="spacing" textLength="28" x="311.5" y="99.9839">Date</text><ellipse cx="302.5" cy="109.5781" fill="#000000" rx="3" ry="3" style="stroke:#000000;stroke-width:1.0;"/><text fill="#000000" font-family="sans-serif" font-size="11" lengthAdjust="spacing" textLength="33" x="311.5" y="112.7886">Value</text><ellipse cx="302.5" cy="122.3828" fill="#000000" rx="3" ry="3" style="stroke:#000000;stroke-width:1.0;"/><text fill="#000000" font-family="sans-serif" font-size="11" lengthAdjust="spacing" textLength="67" x="311.5" y="125.5933">UserId «FK»</text><ellipse cx="302.5" cy="135.1875" fill="#000000" rx="3" ry="3" style="stroke:#000000;stroke-width:1.0;"/><text fill="#000000" font-family="sans-serif" font-size="11" lengthAdjust="spacing" textLength="141" x="311.5" y="138.3979">TeacherShortname «FK»</text><ellipse cx="302.5" cy="147.9922" fill="#000000" rx="3" ry="3" style="stroke:#000000;stroke-width:1.0;"/><text fill="#000000" font-family="sans-serif" font-size="11" lengthAdjust="spacing" textLength="164" x="311.5" y="151.2026">RatingCriteriaTeacherId «FK»</text><!--MD5=[10a9fff9df9a76a22f65fd5d58adb785]
class School--><rect codeLine="6" fill="#FEFECE" filter="url(#f1glec4fxjl2f1)" height="65.5781" id="School" style="stroke:#A80036;stroke-width:1.5;" width="117" x="181" y="572"/><text fill="#000000" font-family="sans-serif" font-size="12" lengthAdjust="spacing" textLength="41" x="219" y="588.1387">School</text><line style="stroke:#A80036;stroke-width:1.5;" x1="182" x2="297" y1="595.9688" y2="595.9688"/><ellipse cx="192" cy="606.9688" fill="#000000" rx="3" ry="3" style="stroke:#000000;stroke-width:1.0;"/><text fill="#000000" font-family="sans-serif" font-size="11" lengthAdjust="spacing" textLength="45" x="201" y="610.1792">Number</text><line style="stroke:#A80036;stroke-width:1.0;" x1="182" x2="297" y1="616.7734" y2="616.7734"/><ellipse cx="192" cy="627.7734" fill="#000000" rx="3" ry="3" style="stroke:#000000;stroke-width:1.0;"/><text fill="#000000" font-family="sans-serif" font-size="11" lengthAdjust="spacing" textLength="91" x="201" y="630.9839">Name «unique»</text><!--MD5=[172f19d042401ced8ba8a38b6739ba0d]
class RatingCriteria--><rect codeLine="12" fill="#FEFECE" filter="url(#f1glec4fxjl2f1)" height="65.5781" id="RatingCriteria" style="stroke:#A80036;stroke-width:1.5;" width="117" x="20" y="420.5"/><text fill="#000000" font-family="sans-serif" font-size="12" lengthAdjust="spacing" textLength="79" x="39" y="436.6387">RatingCriteria</text><line style="stroke:#A80036;stroke-width:1.5;" x1="21" x2="136" y1="444.4688" y2="444.4688"/><ellipse cx="31" cy="455.4688" fill="#000000" rx="3" ry="3" style="stroke:#000000;stroke-width:1.0;"/><text fill="#000000" font-family="sans-serif" font-size="11" lengthAdjust="spacing" textLength="88" x="40" y="458.6792">Id «generated»</text><line style="stroke:#A80036;stroke-width:1.0;" x1="21" x2="136" y1="465.2734" y2="465.2734"/><ellipse cx="31" cy="476.2734" fill="#000000" rx="3" ry="3" style="stroke:#000000;stroke-width:1.0;"/><text fill="#000000" font-family="sans-serif" font-size="11" lengthAdjust="spacing" textLength="91" x="40" y="479.4839">Name «unique»</text><!--MD5=[3fd616f346a44cd59a91eb10b19e157c]
class User--><rect codeLine="18" fill="#FEFECE" filter="url(#f1glec4fxjl2f1)" height="116.7969" id="User" style="stroke:#A80036;stroke-width:1.5;" width="134" x="172.5" y="395"/><text fill="#000000" font-family="sans-serif" font-size="12" lengthAdjust="spacing" textLength="29" x="225" y="411.1387">User</text><line style="stroke:#A80036;stroke-width:1.5;" x1="173.5" x2="305.5" y1="418.9688" y2="418.9688"/><ellipse cx="183.5" cy="429.9688" fill="#000000" rx="3" ry="3" style="stroke:#000000;stroke-width:1.0;"/><text fill="#000000" font-family="sans-serif" font-size="11" lengthAdjust="spacing" textLength="88" x="192.5" y="433.1792">Id «generated»</text><line style="stroke:#A80036;stroke-width:1.0;" x1="173.5" x2="305.5" y1="439.7734" y2="439.7734"/><ellipse cx="183.5" cy="450.7734" fill="#000000" rx="3" ry="3" style="stroke:#000000;stroke-width:1.0;"/><text fill="#000000" font-family="sans-serif" font-size="11" lengthAdjust="spacing" textLength="56" x="192.5" y="453.9839">Firstname</text><ellipse cx="183.5" cy="463.5781" fill="#000000" rx="3" ry="3" style="stroke:#000000;stroke-width:1.0;"/><text fill="#000000" font-family="sans-serif" font-size="11" lengthAdjust="spacing" textLength="56" x="192.5" y="466.7886">Lastname</text><text fill="#000000" font-family="sans-serif" font-size="11" lengthAdjust="spacing" textLength="31" x="192.5" y="479.5933">Email</text><ellipse cx="183.5" cy="489.1875" fill="#000000" rx="3" ry="3" style="stroke:#000000;stroke-width:1.0;"/><text fill="#000000" font-family="sans-serif" font-size="11" lengthAdjust="spacing" textLength="108" x="192.5" y="492.3979">PhoneNr  «unique»</text><ellipse cx="183.5" cy="501.9922" fill="#000000" rx="3" ry="3" style="stroke:#000000;stroke-width:1.0;"/><text fill="#000000" font-family="sans-serif" font-size="11" lengthAdjust="spacing" textLength="77" x="192.5" y="505.2026">School   «FK»</text><!--MD5=[0a8a9a553ad28d76d3a1fd3918a25a86]
class Rating--><rect codeLine="29" fill="#FEFECE" filter="url(#f1glec4fxjl2f1)" height="116.7969" id="Rating" style="stroke:#A80036;stroke-width:1.5;" width="143" x="7" y="218"/><text fill="#000000" font-family="sans-serif" font-size="12" lengthAdjust="spacing" textLength="36" x="60.5" y="234.1387">Rating</text><line style="stroke:#A80036;stroke-width:1.5;" x1="8" x2="149" y1="241.9688" y2="241.9688"/><ellipse cx="18" cy="252.9688" fill="#000000" rx="3" ry="3" style="stroke:#000000;stroke-width:1.0;"/><text fill="#000000" font-family="sans-serif" font-size="11" lengthAdjust="spacing" textLength="88" x="27" y="256.1792">Id «generated»</text><line style="stroke:#A80036;stroke-width:1.0;" x1="8" x2="149" y1="262.7734" y2="262.7734"/><ellipse cx="18" cy="273.7734" fill="#000000" rx="3" ry="3" style="stroke:#000000;stroke-width:1.0;"/><text fill="#000000" font-family="sans-serif" font-size="11" lengthAdjust="spacing" textLength="28" x="27" y="276.9839">Date</text><ellipse cx="18" cy="286.5781" fill="#000000" rx="3" ry="3" style="stroke:#000000;stroke-width:1.0;"/><text fill="#000000" font-family="sans-serif" font-size="11" lengthAdjust="spacing" textLength="33" x="27" y="289.7886">Value</text><ellipse cx="18" cy="299.3828" fill="#000000" rx="3" ry="3" style="stroke:#000000;stroke-width:1.0;"/><text fill="#000000" font-family="sans-serif" font-size="11" lengthAdjust="spacing" textLength="114" x="27" y="302.5933">SchoolNumber «FK»</text><ellipse cx="18" cy="312.1875" fill="#000000" rx="3" ry="3" style="stroke:#000000;stroke-width:1.0;"/><text fill="#000000" font-family="sans-serif" font-size="11" lengthAdjust="spacing" textLength="67" x="27" y="315.3979">UserId «FK»</text><ellipse cx="18" cy="324.9922" fill="#000000" rx="3" ry="3" style="stroke:#000000;stroke-width:1.0;"/><text fill="#000000" font-family="sans-serif" font-size="11" lengthAdjust="spacing" textLength="117" x="27" y="328.2026">RatingCriteriaId «FK»</text><!--MD5=[e67dabbd35c4ec59257a8de2eea4bdc5]
link User to School--><path codeLine="27" d="M239.5,520.074 C239.5,520.074 239.5,563.972 239.5,563.972 " fill="none" id="User-School" style="stroke:#A80036;stroke-width:1.0;stroke-dasharray:7.0,7.0;"/><line style="stroke:#A80036;stroke-width:1.0;" x1="243.5" x2="235.5" y1="567.972" y2="567.972"/><line style="stroke:#A80036;stroke-width:1.0;" x1="243.5" x2="235.5" y1="564.972" y2="564.972"/><line style="stroke:#A80036;stroke-width:1.0;" x1="239.5" x2="239.5" y1="563.972" y2="571.972"/><line style="stroke:#A80036;stroke-width:1.0;" x1="239.5" x2="233.5" y1="520.074" y2="512.074"/><line style="stroke:#A80036;stroke-width:1.0;" x1="239.5" x2="245.5" y1="520.074" y2="512.074"/><line style="stroke:#A80036;stroke-width:1.0;" x1="239.5" x2="239.5" y1="520.074" y2="512.074"/><ellipse cx="239.5" cy="526.074" rx="4" ry="4" style="stroke:#A80036;stroke-width:1.0;fill:none;"/><!--MD5=[b7917db5e0a5ba447a828e2214b4ab48]
link Rating to School--><path codeLine="38" d="M141.333,343.229 C141.333,343.229 141.333,605 141.333,605 C141.333,605 172.979,605 172.979,605 " fill="none" id="Rating-School" style="stroke:#A80036;stroke-width:1.0;stroke-dasharray:7.0,7.0;"/><line style="stroke:#A80036;stroke-width:1.0;" x1="176.979" x2="176.979" y1="601" y2="609"/><line style="stroke:#A80036;stroke-width:1.0;" x1="173.979" x2="173.979" y1="601" y2="609"/><line style="stroke:#A80036;stroke-width:1.0;" x1="172.979" x2="180.979" y1="605" y2="605"/><line style="stroke:#A80036;stroke-width:1.0;" x1="141.333" x2="135.333" y1="343.229" y2="335.229"/><line style="stroke:#A80036;stroke-width:1.0;" x1="141.333" x2="147.333" y1="343.229" y2="335.229"/><line style="stroke:#A80036;stroke-width:1.0;" x1="141.333" x2="141.333" y1="343.229" y2="335.229"/><ellipse cx="141.333" cy="349.229" rx="4" ry="4" style="stroke:#A80036;stroke-width:1.0;fill:none;"/><!--MD5=[7df1310d9f5b50d284c38b4b9283908e]
link Rating to User--><path codeLine="39" d="M145.667,343.327 C145.667,343.327 145.667,408 145.667,408 C145.667,408 164.305,408 164.305,408 " fill="none" id="Rating-User" style="stroke:#A80036;stroke-width:1.0;stroke-dasharray:7.0,7.0;"/><line style="stroke:#A80036;stroke-width:1.0;" x1="168.305" x2="168.305" y1="404" y2="412"/><line style="stroke:#A80036;stroke-width:1.0;" x1="165.305" x2="165.305" y1="404" y2="412"/><line style="stroke:#A80036;stroke-width:1.0;" x1="164.305" x2="172.305" y1="408" y2="408"/><line style="stroke:#A80036;stroke-width:1.0;" x1="145.667" x2="139.667" y1="343.327" y2="335.327"/><line style="stroke:#A80036;stroke-width:1.0;" x1="145.667" x2="151.667" y1="343.327" y2="335.327"/><line style="stroke:#A80036;stroke-width:1.0;" x1="145.667" x2="145.667" y1="343.327" y2="335.327"/><ellipse cx="145.667" cy="349.327" rx="4" ry="4" style="stroke:#A80036;stroke-width:1.0;fill:none;"/><!--MD5=[69a31865baf7f2424511fed505ead18e]
link Rating to RatingCriteria--><path codeLine="40" d="M78.5,343.438 C78.5,343.438 78.5,412.346 78.5,412.346 " fill="none" id="Rating-RatingCriteria" style="stroke:#A80036;stroke-width:1.0;stroke-dasharray:7.0,7.0;"/><line style="stroke:#A80036;stroke-width:1.0;" x1="82.5" x2="74.5" y1="416.346" y2="416.346"/><line style="stroke:#A80036;stroke-width:1.0;" x1="82.5" x2="74.5" y1="413.346" y2="413.346"/><line style="stroke:#A80036;stroke-width:1.0;" x1="78.5" x2="78.5" y1="412.346" y2="420.346"/><line style="stroke:#A80036;stroke-width:1.0;" x1="78.5" x2="72.5" y1="343.438" y2="335.438"/><line style="stroke:#A80036;stroke-width:1.0;" x1="78.5" x2="84.5" y1="343.438" y2="335.438"/><line style="stroke:#A80036;stroke-width:1.0;" x1="78.5" x2="78.5" y1="343.438" y2="335.438"/><ellipse cx="78.5" cy="349.438" rx="4" ry="4" style="stroke:#A80036;stroke-width:1.0;fill:none;"/><!--MD5=[cf80e0c024b75c0cc637ffc9d519efc4]
link Teacher to School--><path codeLine="53" d="M369,336.552 C369,336.552 369,605 369,605 C369,605 306.188,605 306.188,605 " fill="none" id="Teacher-School" style="stroke:#A80036;stroke-width:1.0;stroke-dasharray:7.0,7.0;"/><line style="stroke:#A80036;stroke-width:1.0;" x1="302.188" x2="302.188" y1="609" y2="601"/><line style="stroke:#A80036;stroke-width:1.0;" x1="305.188" x2="305.188" y1="609" y2="601"/><line style="stroke:#A80036;stroke-width:1.0;" x1="306.188" x2="298.188" y1="605" y2="605"/><line style="stroke:#A80036;stroke-width:1.0;" x1="369" x2="363" y1="336.552" y2="328.552"/><line style="stroke:#A80036;stroke-width:1.0;" x1="369" x2="375" y1="336.552" y2="328.552"/><line style="stroke:#A80036;stroke-width:1.0;" x1="369" x2="369" y1="336.552" y2="328.552"/><ellipse cx="369" cy="342.552" rx="4" ry="4" style="stroke:#A80036;stroke-width:1.0;fill:none;"/><!--MD5=[9351d1313527dcbe12b67706a4b3d435]
link TeacherRating to Teacher--><path codeLine="71" d="M361.5,166.438 C361.5,166.438 361.5,216.359 361.5,216.359 " fill="none" id="TeacherRating-Teacher" style="stroke:#A80036;stroke-width:1.0;stroke-dasharray:7.0,7.0;"/><line style="stroke:#A80036;stroke-width:1.0;" x1="365.5" x2="357.5" y1="220.359" y2="220.359"/><line style="stroke:#A80036;stroke-width:1.0;" x1="365.5" x2="357.5" y1="217.359" y2="217.359"/><line style="stroke:#A80036;stroke-width:1.0;" x1="361.5" x2="361.5" y1="216.359" y2="224.359"/><line style="stroke:#A80036;stroke-width:1.0;" x1="361.5" x2="355.5" y1="166.438" y2="158.438"/><line style="stroke:#A80036;stroke-width:1.0;" x1="361.5" x2="367.5" y1="166.438" y2="158.438"/><line style="stroke:#A80036;stroke-width:1.0;" x1="361.5" x2="361.5" y1="166.438" y2="158.438"/><ellipse cx="361.5" cy="172.438" rx="4" ry="4" style="stroke:#A80036;stroke-width:1.0;fill:none;"/><!--MD5=[603ead7afbbd7c35b0fa88c31a0484f3]
link TeacherRating to User--><path codeLine="72" d="M283.292,100 C283.292,100 232,100 232,100 C232,100 232,386.73 232,386.73 " fill="none" id="TeacherRating-User" style="stroke:#A80036;stroke-width:1.0;stroke-dasharray:7.0,7.0;"/><line style="stroke:#A80036;stroke-width:1.0;" x1="236" x2="228" y1="390.73" y2="390.73"/><line style="stroke:#A80036;stroke-width:1.0;" x1="236" x2="228" y1="387.73" y2="387.73"/><line style="stroke:#A80036;stroke-width:1.0;" x1="232" x2="232" y1="386.73" y2="394.73"/><line style="stroke:#A80036;stroke-width:1.0;" x1="283.292" x2="291.292" y1="100" y2="94"/><line style="stroke:#A80036;stroke-width:1.0;" x1="283.292" x2="291.292" y1="100" y2="106"/><line style="stroke:#A80036;stroke-width:1.0;" x1="283.292" x2="291.292" y1="100" y2="100"/><ellipse cx="277.292" cy="100" rx="4" ry="4" style="stroke:#A80036;stroke-width:1.0;fill:none;"/><!--MD5=[fd2e584ddd9c9d4b688162271e0f2f61]
link TeacherRating to RatingCriteriaTeacher--><path codeLine="73" d="M474,166.438 C474,166.438 474,235.346 474,235.346 " fill="none" id="TeacherRating-RatingCriteriaTeacher" style="stroke:#A80036;stroke-width:1.0;stroke-dasharray:7.0,7.0;"/><line style="stroke:#A80036;stroke-width:1.0;" x1="478" x2="470" y1="239.346" y2="239.346"/><line style="stroke:#A80036;stroke-width:1.0;" x1="478" x2="470" y1="236.346" y2="236.346"/><line style="stroke:#A80036;stroke-width:1.0;" x1="474" x2="474" y1="235.346" y2="243.346"/><line style="stroke:#A80036;stroke-width:1.0;" x1="474" x2="468" y1="166.438" y2="158.438"/><line style="stroke:#A80036;stroke-width:1.0;" x1="474" x2="480" y1="166.438" y2="158.438"/><line style="stroke:#A80036;stroke-width:1.0;" x1="474" x2="474" y1="166.438" y2="158.438"/><ellipse cx="474" cy="172.438" rx="4" ry="4" style="stroke:#A80036;stroke-width:1.0;fill:none;"/><!--MD5=[1a6818966dda13ad8721b99a95881357]
@startuml
' hide the spot
hide circle
' Optional: enable for orthogonal lines.
skinparam linetype ortho

entity School {
    *Number
    - - -
    *Name <<unique>>
}

entity RatingCriteria {
	*Id <<generated>>
	- - -
	*Name <<unique>>
}

entity User {
    *Id <<generated>>
    - - -
	*Firstname
	*Lastname
	Email
	*PhoneNr  <<unique>>
	*School   <<FK>>
}
User }o..|| School

entity Rating {
	*Id <<generated>>
	- - -
	*Date
	*Value
	*SchoolNumber <<FK>>
	*UserId <<FK>>
	*RatingCriteriaId <<FK>>
}
Rating }o..|| School
Rating }o..|| User
Rating }o..|| RatingCriteria

package Todo {

entity Teacher {
	*Shortname
	- - -
	*Firstname
	*Lastname
	Email
	*SchoolNumber <<FK>>
}

Teacher }o..|| School

entity RatingCriteriaTeacher {
	*Id <<generated>>
	- - -
	*Name <<unique>>
}

entity TeacherRating {
	*Id <<generated>>
	- - -
	*Date
	*Value
	*UserId <<FK>>
	*TeacherShortname <<FK>>
	*RatingCriteriaTeacherId <<FK>>
}

TeacherRating }o..|| Teacher
TeacherRating }o...|| User
TeacherRating }o..|| RatingCriteriaTeacher
}
@enduml

@startuml
hide circle
skinparam linetype ortho

entity School {
    *Number
    - - -
    *Name <<unique>>
}

entity RatingCriteria {
	*Id <<generated>>
	- - -
	*Name <<unique>>
}

entity User {
    *Id <<generated>>
    - - -
	*Firstname
	*Lastname
	Email
	*PhoneNr  <<unique>>
	*School   <<FK>>
}
User }o..|| School

entity Rating {
	*Id <<generated>>
	- - -
	*Date
	*Value
	*SchoolNumber <<FK>>
	*UserId <<FK>>
	*RatingCriteriaId <<FK>>
}
Rating }o..|| School
Rating }o..|| User
Rating }o..|| RatingCriteria

package Todo {

entity Teacher {
	*Shortname
	- - -
	*Firstname
	*Lastname
	Email
	*SchoolNumber <<FK>>
}

Teacher }o..|| School

entity RatingCriteriaTeacher {
	*Id <<generated>>
	- - -
	*Name <<unique>>
}

entity TeacherRating {
	*Id <<generated>>
	- - -
	*Date
	*Value
	*UserId <<FK>>
	*TeacherShortname <<FK>>
	*RatingCriteriaTeacherId <<FK>>
}

TeacherRating }o..|| Teacher
TeacherRating }o...|| User
TeacherRating }o..|| RatingCriteriaTeacher
}
@enduml

PlantUML version 1.2021.16beta1(Unknown compile time)
(GPL source distribution)
Java Runtime: Java(TM) SE Runtime Environment
JVM: Java HotSpot(TM) 64-Bit Server VM
Default Encoding: UTF-8
Language: en
Country: US
--></g></svg>