<?xml version="1.0" encoding="UTF-8" standalone="no"?><svg xmlns="http://www.w3.org/2000/svg" xmlns:xlink="http://www.w3.org/1999/xlink" contentScriptType="application/ecmascript" contentStyleType="text/css" height="388px" preserveAspectRatio="none" style="width:442px;height:388px;background:#FFFFFF;" version="1.1" viewBox="0 0 442 388" width="442px" zoomAndPan="magnify"><defs><filter height="300%" id="f54ylt095ceru" width="300%" x="-1" y="-1"><feGaussianBlur result="blurOut" stdDeviation="2.0"/><feColorMatrix in="blurOut" result="blurOut2" type="matrix" values="0 0 0 0 0 0 0 0 0 0 0 0 0 0 0 0 0 0 .4 0"/><feOffset dx="4.0" dy="4.0" in="blurOut2" result="blurOut3"/><feBlend in="SourceGraphic" in2="blurOut3" mode="normal"/></filter></defs><g><!--MD5=[41e1c6cf192918703501b24b2053926c]
class Class--><rect codeLine="4" fill="#FEFECE" filter="url(#f54ylt095ceru)" height="78.3828" id="Class" style="stroke:#A80036;stroke-width:1.5;" width="166" x="248.5" y="296"/><text fill="#000000" font-family="sans-serif" font-size="12" lengthAdjust="spacing" textLength="32" x="315.5" y="312.1387">Class</text><line style="stroke:#A80036;stroke-width:1.5;" x1="249.5" x2="413.5" y1="319.9688" y2="319.9688"/><ellipse cx="259.5" cy="330.9688" fill="#000000" rx="3" ry="3" style="stroke:#000000;stroke-width:1.0;"/><text fill="#000000" font-family="sans-serif" font-size="11" lengthAdjust="spacing" textLength="140" x="268.5" y="334.1792">Id : Integer «generated»</text><line style="stroke:#A80036;stroke-width:1.0;" x1="249.5" x2="413.5" y1="340.7734" y2="340.7734"/><ellipse cx="259.5" cy="351.7734" fill="#000000" rx="3" ry="3" style="stroke:#000000;stroke-width:1.0;"/><text fill="#000000" font-family="sans-serif" font-size="11" lengthAdjust="spacing" textLength="78" x="268.5" y="354.9839">Name : String</text><ellipse cx="259.5" cy="364.5781" fill="#000000" rx="3" ry="3" style="stroke:#000000;stroke-width:1.0;"/><text fill="#000000" font-family="sans-serif" font-size="11" lengthAdjust="spacing" textLength="116" x="268.5" y="367.7886">Schoolyear : Integer</text><!--MD5=[d6181cb537bdc20c0a3007a98a56832d]
class Student--><rect codeLine="11" fill="#FEFECE" filter="url(#f54ylt095ceru)" height="91.1875" id="Student" style="stroke:#A80036;stroke-width:1.5;" width="148" x="45.5" y="145"/><text fill="#000000" font-family="sans-serif" font-size="12" lengthAdjust="spacing" textLength="46" x="96.5" y="161.1387">Student</text><line style="stroke:#A80036;stroke-width:1.5;" x1="46.5" x2="192.5" y1="168.9688" y2="168.9688"/><ellipse cx="56.5" cy="179.9688" fill="#000000" rx="3" ry="3" style="stroke:#000000;stroke-width:1.0;"/><text fill="#000000" font-family="sans-serif" font-size="11" lengthAdjust="spacing" textLength="122" x="65.5" y="183.1792">Accountname : String</text><line style="stroke:#A80036;stroke-width:1.0;" x1="46.5" x2="192.5" y1="189.7734" y2="189.7734"/><ellipse cx="56.5" cy="200.7734" fill="#000000" rx="3" ry="3" style="stroke:#000000;stroke-width:1.0;"/><text fill="#000000" font-family="sans-serif" font-size="11" lengthAdjust="spacing" textLength="100" x="65.5" y="203.9839">Firstname : String</text><ellipse cx="56.5" cy="213.5781" fill="#000000" rx="3" ry="3" style="stroke:#000000;stroke-width:1.0;"/><text fill="#000000" font-family="sans-serif" font-size="11" lengthAdjust="spacing" textLength="100" x="65.5" y="216.7886">Lastname : String</text><ellipse cx="56.5" cy="226.3828" fill="#000000" rx="3" ry="3" style="stroke:#000000;stroke-width:1.0;"/><text fill="#000000" font-family="sans-serif" font-size="11" lengthAdjust="spacing" textLength="75" x="65.5" y="229.5933">Email : String</text><!--MD5=[1c8e606990a0a149235f5108f9e5b1cd]
class Absence--><rect codeLine="19" fill="#FEFECE" filter="url(#f54ylt095ceru)" height="78.3828" id="Absence" style="stroke:#A80036;stroke-width:1.5;" width="193" x="7" y="7"/><text fill="#000000" font-family="sans-serif" font-size="12" lengthAdjust="spacing" textLength="53" x="77" y="23.1387">Absence</text><line style="stroke:#A80036;stroke-width:1.5;" x1="8" x2="199" y1="30.9688" y2="30.9688"/><ellipse cx="18" cy="41.9688" fill="#000000" rx="3" ry="3" style="stroke:#000000;stroke-width:1.0;"/><text fill="#000000" font-family="sans-serif" font-size="11" lengthAdjust="spacing" textLength="140" x="27" y="45.1792">Id : Integer «generated»</text><line style="stroke:#A80036;stroke-width:1.0;" x1="8" x2="199" y1="51.7734" y2="51.7734"/><ellipse cx="18" cy="62.7734" fill="#000000" rx="3" ry="3" style="stroke:#000000;stroke-width:1.0;"/><text fill="#000000" font-family="sans-serif" font-size="11" lengthAdjust="spacing" textLength="167" x="27" y="65.9839">StudentAccountname : String</text><ellipse cx="18" cy="75.5781" fill="#000000" rx="3" ry="3" style="stroke:#000000;stroke-width:1.0;"/><text fill="#000000" font-family="sans-serif" font-size="11" lengthAdjust="spacing" textLength="96" x="27" y="78.7886">Date : DateTime</text><!--MD5=[2b7409a316d9d2e410653e6983353aed]
class Module--><rect codeLine="28" fill="#FEFECE" filter="url(#f54ylt095ceru)" height="78.3828" id="Module" style="stroke:#A80036;stroke-width:1.5;" width="176" x="243.5" y="151.5"/><text fill="#000000" font-family="sans-serif" font-size="12" lengthAdjust="spacing" textLength="44" x="309.5" y="167.6387">Module</text><line style="stroke:#A80036;stroke-width:1.5;" x1="244.5" x2="418.5" y1="175.4688" y2="175.4688"/><ellipse cx="254.5" cy="186.4688" fill="#000000" rx="3" ry="3" style="stroke:#000000;stroke-width:1.0;"/><text fill="#000000" font-family="sans-serif" font-size="11" lengthAdjust="spacing" textLength="140" x="263.5" y="189.6792">Id : Integer «generated»</text><line style="stroke:#A80036;stroke-width:1.0;" x1="244.5" x2="418.5" y1="196.2734" y2="196.2734"/><ellipse cx="254.5" cy="207.2734" fill="#000000" rx="3" ry="3" style="stroke:#000000;stroke-width:1.0;"/><text fill="#000000" font-family="sans-serif" font-size="11" lengthAdjust="spacing" textLength="92" x="263.5" y="210.4839">ClassId : Integer</text><ellipse cx="254.5" cy="220.0781" fill="#000000" rx="3" ry="3" style="stroke:#000000;stroke-width:1.0;"/><text fill="#000000" font-family="sans-serif" font-size="11" lengthAdjust="spacing" textLength="150" x="263.5" y="223.2886">SubjectShortname : String</text><!--MD5=[0f201783a4178fdee4175ab85cbcd76b]
class Inskription--><rect codeLine="37" fill="#FEFECE" filter="url(#f54ylt095ceru)" height="65.5781" id="Inskription" style="stroke:#A80036;stroke-width:1.5;" width="193" x="235" y="13"/><text fill="#000000" font-family="sans-serif" font-size="12" lengthAdjust="spacing" textLength="62" x="300.5" y="29.1387">Inskription</text><line style="stroke:#A80036;stroke-width:1.5;" x1="236" x2="427" y1="36.9688" y2="36.9688"/><ellipse cx="246" cy="47.9688" fill="#000000" rx="3" ry="3" style="stroke:#000000;stroke-width:1.0;"/><text fill="#000000" font-family="sans-serif" font-size="11" lengthAdjust="spacing" textLength="103" x="255" y="51.1792">ModuleId : Integer</text><ellipse cx="246" cy="60.7734" fill="#000000" rx="3" ry="3" style="stroke:#000000;stroke-width:1.0;"/><text fill="#000000" font-family="sans-serif" font-size="11" lengthAdjust="spacing" textLength="167" x="255" y="63.9839">StudentAccountname : String</text><line style="stroke:#A80036;stroke-width:1.5;" x1="236" x2="427" y1="70.5781" y2="70.5781"/><!--MD5=[81adff0a9191b20c118c8c8806594708]
link Absence to Student--><path codeLine="26" d="M119.5,93.104 C119.5,93.104 119.5,136.963 119.5,136.963 " fill="none" id="Absence-Student" style="stroke:#A80036;stroke-width:1.0;"/><line style="stroke:#A80036;stroke-width:1.0;" x1="123.5" x2="115.5" y1="140.963" y2="140.963"/><line style="stroke:#A80036;stroke-width:1.0;" x1="123.5" x2="115.5" y1="137.963" y2="137.963"/><line style="stroke:#A80036;stroke-width:1.0;" x1="119.5" x2="119.5" y1="136.963" y2="144.963"/><line style="stroke:#A80036;stroke-width:1.0;" x1="119.5" x2="113.5" y1="93.104" y2="85.104"/><line style="stroke:#A80036;stroke-width:1.0;" x1="119.5" x2="125.5" y1="93.104" y2="85.104"/><line style="stroke:#A80036;stroke-width:1.0;" x1="119.5" x2="119.5" y1="93.104" y2="85.104"/><ellipse cx="119.5" cy="99.104" rx="4" ry="4" style="stroke:#A80036;stroke-width:1.0;fill:none;"/><!--MD5=[42c49ecbb7ec2e969d6b1695ec174ea8]
link Module to Class--><path codeLine="35" d="M331.5,237.604 C331.5,237.604 331.5,287.865 331.5,287.865 " fill="none" id="Module-Class" style="stroke:#A80036;stroke-width:1.0;"/><line style="stroke:#A80036;stroke-width:1.0;" x1="335.5" x2="327.5" y1="291.865" y2="291.865"/><line style="stroke:#A80036;stroke-width:1.0;" x1="335.5" x2="327.5" y1="288.865" y2="288.865"/><line style="stroke:#A80036;stroke-width:1.0;" x1="331.5" x2="331.5" y1="287.865" y2="295.865"/><line style="stroke:#A80036;stroke-width:1.0;" x1="331.5" x2="325.5" y1="237.604" y2="229.604"/><line style="stroke:#A80036;stroke-width:1.0;" x1="331.5" x2="337.5" y1="237.604" y2="229.604"/><line style="stroke:#A80036;stroke-width:1.0;" x1="331.5" x2="331.5" y1="237.604" y2="229.604"/><ellipse cx="331.5" cy="243.604" rx="4" ry="4" style="stroke:#A80036;stroke-width:1.0;fill:none;"/><!--MD5=[1ee72e546bb48d07a3d8bcb26431ffa4]
link Inskription to Module--><path codeLine="42" d="M331.5,87.151 C331.5,87.151 331.5,143.35 331.5,143.35 " fill="none" id="Inskription-Module" style="stroke:#A80036;stroke-width:1.0;"/><line style="stroke:#A80036;stroke-width:1.0;" x1="335.5" x2="327.5" y1="147.35" y2="147.35"/><line style="stroke:#A80036;stroke-width:1.0;" x1="335.5" x2="327.5" y1="144.35" y2="144.35"/><line style="stroke:#A80036;stroke-width:1.0;" x1="331.5" x2="331.5" y1="143.35" y2="151.35"/><line style="stroke:#A80036;stroke-width:1.0;" x1="331.5" x2="325.5" y1="87.151" y2="79.151"/><line style="stroke:#A80036;stroke-width:1.0;" x1="331.5" x2="337.5" y1="87.151" y2="79.151"/><line style="stroke:#A80036;stroke-width:1.0;" x1="331.5" x2="331.5" y1="87.151" y2="79.151"/><ellipse cx="331.5" cy="93.151" rx="4" ry="4" style="stroke:#A80036;stroke-width:1.0;fill:none;"/><!--MD5=[a154917c3a4669a39395ab2c944297fb]
link Inskription to Student--><path codeLine="43" d="M239.25,87.266 C239.25,87.266 239.25,191 239.25,191 C239.25,191 201.636,191 201.636,191 " fill="none" id="Inskription-Student" style="stroke:#A80036;stroke-width:1.0;"/><line style="stroke:#A80036;stroke-width:1.0;" x1="197.636" x2="197.636" y1="195" y2="187"/><line style="stroke:#A80036;stroke-width:1.0;" x1="200.636" x2="200.636" y1="195" y2="187"/><line style="stroke:#A80036;stroke-width:1.0;" x1="201.636" x2="193.636" y1="191" y2="191"/><line style="stroke:#A80036;stroke-width:1.0;" x1="239.25" x2="233.25" y1="87.266" y2="79.266"/><line style="stroke:#A80036;stroke-width:1.0;" x1="239.25" x2="245.25" y1="87.266" y2="79.266"/><line style="stroke:#A80036;stroke-width:1.0;" x1="239.25" x2="239.25" y1="87.266" y2="79.266"/><ellipse cx="239.25" cy="93.266" rx="4" ry="4" style="stroke:#A80036;stroke-width:1.0;fill:none;"/><!--MD5=[36e878f57b118c254ca4ad0b89f5e226]
@startuml
hide circle
skinparam linetype ortho

entity Class {
    *Id : Integer <<generated>>
    - - -
    *Name : String
    *Schoolyear : Integer
}

entity Student {
    *Accountname : String
    - - -
	*Firstname : String
	*Lastname : String
	*Email : String    
}

entity Absence {
    *Id : Integer <<generated>>
    - - -
    *StudentAccountname : String
    *Date : DateTime
}

Absence }o- -|| Student

entity Module {
    *Id : Integer <<generated>>
    - - -
    *ClassId : Integer
    *SubjectShortname : String
}

Module }o- -|| Class

entity Inskription {
    *ModuleId : Integer
    *StudentAccountname : String
}

Inskription }o- -|| Module
Inskription }o- -|| Student
@enduml

PlantUML version 1.2022.1beta3(Unknown compile time)
(GPL source distribution)
Java Runtime: Java(TM) SE Runtime Environment
JVM: Java HotSpot(TM) 64-Bit Server VM
Default Encoding: UTF-8
Language: en
Country: US
--></g></svg>